<svg xmlns="http://www.w3.org/2000/svg" xmlns:xlink="http://www.w3.org/1999/xlink" viewBox="0 0 122.95 73.91"><defs><style>.cls-1{isolation:isolate;}.cls-2{fill:#ed1c24;}.cls-3{mix-blend-mode:multiply;fill:url(#radial-gradient);}.cls-4{fill:#fff;}.cls-5{fill:none;stroke:#fff;stroke-miterlimit:10;}.cls-6{fill-rule:evenodd;fill:url(#linear-gradient);}</style><radialGradient id="radial-gradient" cx="165.67" cy="20.9" r="92.7" gradientTransform="matrix(0.44, 0.51, -0.17, 0.17, 37.12, -66.22)" gradientUnits="userSpaceOnUse"><stop offset="0" stop-color="#ccbba4"/><stop offset="0.1" stop-color="#cdbda6" stop-opacity="0.96"/><stop offset="0.25" stop-color="#d0c1ad" stop-opacity="0.86"/><stop offset="0.44" stop-color="#d4c9b8" stop-opacity="0.7"/><stop offset="0.64" stop-color="#dad3c8" stop-opacity="0.47"/><stop offset="0.87" stop-color="#e2e0dc" stop-opacity="0.18"/><stop offset="1" stop-color="#e7e8e8" stop-opacity="0"/></radialGradient><linearGradient id="linear-gradient" x1="112.42" y1="20.52" x2="98.63" y2="29.13" gradientTransform="translate(-3.24 6.03) rotate(-5.52)" gradientUnits="userSpaceOnUse"><stop offset="0" stop-color="#e9e8eb"/><stop offset="0" stop-color="#e8e7ea"/><stop offset="0.02" stop-color="#dddcdf"/><stop offset="0.06" stop-color="#d7d6d8"/><stop offset="0.15" stop-color="#d5d4d6"/><stop offset="0.15" stop-color="#d5d4d6"/><stop offset="0.28" stop-color="#ececed"/><stop offset="0.4" stop-color="#fafafa"/><stop offset="0.51" stop-color="#fff"/><stop offset="0.63" stop-color="#fbfbfc"/><stop offset="0.74" stop-color="#f1f1f1"/><stop offset="0.84" stop-color="#dfdfe0"/><stop offset="0.87" stop-color="#d7d7d9"/><stop offset="1" stop-color="#e0e0e2"/></linearGradient></defs><g class="cls-1"><g id="Слой_1" data-name="Слой 1"><path class="cls-2" d="M.49,13.77,5.73,68.06a3,3,0,0,0,3.2,2.81l111-10.72a3,3,0,0,0,2.6-3.36L121,32.26,97.59,1.47,3.09,10.4A3,3,0,0,0,.49,13.77Z"/><path class="cls-3" d="M.49,13.77,5.73,68.06a3,3,0,0,0,3.2,2.81l111-10.72a3,3,0,0,0,2.6-3.36L121,32.22l-23.07-31L3.09,10.4A3,3,0,0,0,.49,13.77Z"/><path class="cls-4" d="M18.59,22.55a4.16,4.16,0,0,1,.8,1.23,7.09,7.09,0,0,1,.47,1.92,5.66,5.66,0,0,1-.55,3.57,3.19,3.19,0,0,1-2.49,1.64,3,3,0,0,1-2.91-1.21,9.58,9.58,0,0,1-1.46-4.53c0-.39-.08-.79-.11-1.2s0-.91,0-1.5a10.73,10.73,0,0,1,.2-1.48A4.43,4.43,0,0,1,13,19.74a3.42,3.42,0,0,1,1-1,5.34,5.34,0,0,1,1.81-.76c.37-.1.82-.2,1.34-.29l1.24-.22.26,2.15-.72.13-.74.16-.68.16a5.06,5.06,0,0,0-.71.22,2.17,2.17,0,0,0-.64.38,1.6,1.6,0,0,0-.44.61,2.31,2.31,0,0,0-.17.7,7.14,7.14,0,0,0,0,1,4.22,4.22,0,0,1,.89-.81,2.48,2.48,0,0,1,3.2.37Zm-1.16,5.67a3,3,0,0,0,.23-.82,5.66,5.66,0,0,0,0-1.33A3,3,0,0,0,17,24.53a1.19,1.19,0,0,0-1.1-.48,2.47,2.47,0,0,0-.61.18,2.37,2.37,0,0,0-.64.44q0,.09,0,.24t0,.27c.1.79.19,1.39.28,1.8a4.61,4.61,0,0,0,.39,1.1,1.55,1.55,0,0,0,.52.62,1,1,0,0,0,.67.15,1.14,1.14,0,0,0,.44-.18A1.09,1.09,0,0,0,17.43,28.22Z"/><path class="cls-4" d="M25.21,29.83A3.85,3.85,0,0,1,22,29a5.35,5.35,0,0,1-1.5-3.41,6,6,0,0,1,.55-3.71,3.26,3.26,0,0,1,2.6-1.69,2.82,2.82,0,0,1,2.57.84,5.58,5.58,0,0,1,1.22,3.15l.13,1-4.81.6a3.52,3.52,0,0,0,.34,1,1.9,1.9,0,0,0,.55.63,1.72,1.72,0,0,0,.7.28,3.35,3.35,0,0,0,.84,0,2.35,2.35,0,0,0,.73-.21,3.06,3.06,0,0,0,.64-.37,4.86,4.86,0,0,0,.79-.76l.24,0,.29,2.36-.46.32a4.05,4.05,0,0,1-.58.32,6.15,6.15,0,0,1-.71.28A5.67,5.67,0,0,1,25.21,29.83Zm0-6.12a2.75,2.75,0,0,0-.49-1.34,1,1,0,0,0-1-.36,1.18,1.18,0,0,0-.94.63,2.51,2.51,0,0,0-.23,1.4Z"/><path class="cls-4" d="M32.68,28.9a4.39,4.39,0,0,1-1.63-.09,3.26,3.26,0,0,1-1.37-.73,4.16,4.16,0,0,1-1-1.4,6.56,6.56,0,0,1-.56-2.09,6.83,6.83,0,0,1,0-2.28,4.31,4.31,0,0,1,.68-1.63,3.28,3.28,0,0,1,1.13-1,4.24,4.24,0,0,1,1.45-.46,4.69,4.69,0,0,1,1.18,0,4.44,4.44,0,0,1,1.24.42l.31,2.46-.28,0-.37-.32a3.37,3.37,0,0,0-.46-.31,2.68,2.68,0,0,0-.58-.22,1.7,1.7,0,0,0-.68,0,1.47,1.47,0,0,0-1.21.93,4,4,0,0,0-.2,2.11,3.54,3.54,0,0,0,.74,2,1.56,1.56,0,0,0,1.39.52,1.9,1.9,0,0,0,.72-.21,2.79,2.79,0,0,0,.5-.36,3,3,0,0,0,.33-.41c.09-.13.16-.25.23-.36l.28,0,.3,2.46-.4.3a3.4,3.4,0,0,1-.48.29,4.51,4.51,0,0,1-.57.25A4.4,4.4,0,0,1,32.68,28.9Z"/><path class="cls-4" d="M42.58,27.43l-2.2.27-.88-7.16-2.23.28L38.15,28,36,28.25l-1.14-9.19,6.62-.82Z"/><path class="cls-4" d="M51,26.39l-2.19.27-.89-7.16-1.72.21c0,.39.07.71.09.95s0,.51.08.81a20.79,20.79,0,0,1,.1,2.17,7.12,7.12,0,0,1-.16,1.4,3.65,3.65,0,0,1-.28.88,3.85,3.85,0,0,1-.36.62,1.55,1.55,0,0,1-.57.48,2,2,0,0,1-.71.25l-.56,0h-.34L43.16,25h.26a1.18,1.18,0,0,0,.31-.08.54.54,0,0,0,.25-.22,3.18,3.18,0,0,0,.36-1.6,21.18,21.18,0,0,0-.1-2.16c0-.44-.07-.92-.12-1.45s-.1-1-.16-1.54l5.87-.73Z"/><path class="cls-4" d="M56.4,24.73l-.35.49a2.23,2.23,0,0,1-.43.45,2.82,2.82,0,0,1-.54.36,2.64,2.64,0,0,1-.77.2,1.92,1.92,0,0,1-1.65-.63,3.35,3.35,0,0,1-.87-2,3.77,3.77,0,0,1,.11-1.69,2.56,2.56,0,0,1,.78-1.11,4,4,0,0,1,1.36-.7c.53-.16,1.12-.31,1.75-.45v0a1.18,1.18,0,0,0-.56-1,2.31,2.31,0,0,0-1.32-.13,2.86,2.86,0,0,0-.89.29,6.32,6.32,0,0,0-.95.6l-.19,0-.28-2.22q.31-.15,1-.42a7.2,7.2,0,0,1,1.44-.35,3.82,3.82,0,0,1,2.75.47,3.21,3.21,0,0,1,1.13,2.3l.77,6.25-2.18.27Zm-.18-1.42L56,21.39l-.89.24a2.5,2.5,0,0,0-.65.29,1,1,0,0,0-.4.45,1.42,1.42,0,0,0-.07.73,1.22,1.22,0,0,0,.37.86,1.3,1.3,0,0,0,1.39-.1A2,2,0,0,0,56.22,23.31Z"/><path class="cls-4" d="M65.21,17.33,63,17.6l.89,7.19-2.19.27-.89-7.19-2.18.27-.25-2L65,15.33Z"/><path class="cls-4" d="M73.65,23.58l-2.19.28L71,19.92l-2.26.28.48,3.94L67,24.41l-1.14-9.19,2.2-.27.39,3.18,2.27-.28-.4-3.18,2.2-.27Z"/><path class="cls-4" d="M79.09,21.92l-.35.49a2.56,2.56,0,0,1-.43.46,2.25,2.25,0,0,1-1.31.55,1.87,1.87,0,0,1-1.65-.63,3.3,3.3,0,0,1-.87-2,3.75,3.75,0,0,1,.11-1.69A2.45,2.45,0,0,1,75.37,18a3.84,3.84,0,0,1,1.35-.7,18,18,0,0,1,1.76-.45v-.05a1.18,1.18,0,0,0-.56-1,2.31,2.31,0,0,0-1.32-.13,2.67,2.67,0,0,0-.89.3,6,6,0,0,0-1,.59l-.18,0-.28-2.21a9,9,0,0,1,1-.42,6.58,6.58,0,0,1,1.44-.35,3.77,3.77,0,0,1,2.75.46,3.24,3.24,0,0,1,1.13,2.31l.77,6.25-2.18.27Zm-.18-1.42-.23-1.91-.89.23a2.39,2.39,0,0,0-.65.3,1,1,0,0,0-.4.45,1.39,1.39,0,0,0-.07.73,1.19,1.19,0,0,0,.37.85,1.11,1.11,0,0,0,.82.14,1.17,1.17,0,0,0,.57-.24A1.85,1.85,0,0,0,78.91,20.5Z"/><path class="cls-4" d="M89.14,21.67,87,21.94l-.4-3.19-.66.08-1.29,3.4-2.46.3,1.58-3.85a3,3,0,0,1-1.24-.95,3.73,3.73,0,0,1-.55-1.67A3.07,3.07,0,0,1,82,14.75a2.6,2.6,0,0,1,.51-1,2.26,2.26,0,0,1,.75-.57,3.47,3.47,0,0,1,1-.28L88,12.48ZM86.34,17l-.28-2.29-1,.12a1,1,0,0,0-.69.36,1.18,1.18,0,0,0-.16.84,1.4,1.4,0,0,0,.37.9,1,1,0,0,0,.8.19Z"/><path class="cls-4" d="M25.29,48.33l-2.51.31-.37-3-5.23.64.37,3L15,49.6,14.35,44l.65-.08a21.5,21.5,0,0,0,.48-4.18,33.84,33.84,0,0,0-.26-5.14l7.35-.91,1.13,9.16.9-.11ZM20.9,43.21l-.81-6.56-2,.25a30.32,30.32,0,0,1,0,3.7,18.27,18.27,0,0,1-.43,3Z"/><path class="cls-4" d="M34.31,38.26A7.76,7.76,0,0,1,33.66,43a4,4,0,0,1-3.25,2.1,4.06,4.06,0,0,1-3.65-1.25A7.75,7.75,0,0,1,25,39.41a7.57,7.57,0,0,1,.66-4.76,4.06,4.06,0,0,1,3.23-2.1,4.09,4.09,0,0,1,3.66,1.25A7.78,7.78,0,0,1,34.31,38.26Zm-2.89.37a9.51,9.51,0,0,0-.35-1.73,3.76,3.76,0,0,0-.5-1.08,1.64,1.64,0,0,0-.64-.54,1.52,1.52,0,0,0-.74-.09,1.63,1.63,0,0,0-.67.24,1.57,1.57,0,0,0-.49.65,3.79,3.79,0,0,0-.25,1.18,9.9,9.9,0,0,0,.08,1.81,8.86,8.86,0,0,0,.36,1.74,3.74,3.74,0,0,0,.48,1,1.51,1.51,0,0,0,.64.53,1.54,1.54,0,0,0,.77.1,1.44,1.44,0,0,0,.67-.28,1.35,1.35,0,0,0,.49-.63,3.7,3.7,0,0,0,.24-1.14A10,10,0,0,0,31.42,38.63Z"/><path class="cls-4" d="M41,43.74a5.6,5.6,0,0,1-2.1-.12,4.34,4.34,0,0,1-1.76-.93,5.62,5.62,0,0,1-1.29-1.8,8.92,8.92,0,0,1-.72-2.7,8.79,8.79,0,0,1,.06-2.93,5.36,5.36,0,0,1,.87-2.09,4.17,4.17,0,0,1,1.45-1.29,5.47,5.47,0,0,1,1.86-.59,5.63,5.63,0,0,1,1.53,0,5.93,5.93,0,0,1,1.6.54L42.91,35l-.37,0a5.3,5.3,0,0,0-.47-.41,4.07,4.07,0,0,0-.59-.4,3.26,3.26,0,0,0-.74-.29,2.32,2.32,0,0,0-.88,0,1.86,1.86,0,0,0-1.55,1.19A5.25,5.25,0,0,0,38,37.84a4.62,4.62,0,0,0,1,2.57,2,2,0,0,0,1.79.66,2.49,2.49,0,0,0,.92-.27,2.92,2.92,0,0,0,.64-.46,3.94,3.94,0,0,0,.43-.52c.11-.18.21-.33.29-.47l.37,0,.39,3.15-.53.39a3.81,3.81,0,0,1-.61.37,6.37,6.37,0,0,1-.74.32A4.74,4.74,0,0,1,41,43.74Z"/><path class="cls-4" d="M51.52,32.73l-2.8.35,1.14,9.24L47,42.67,45.9,33.43l-2.81.34-.31-2.56,8.42-1.05Z"/><path class="cls-4" d="M58.65,40c-.16.24-.31.45-.45.64a3.21,3.21,0,0,1-.55.58,3.94,3.94,0,0,1-.69.46,3.52,3.52,0,0,1-1,.25,2.4,2.4,0,0,1-2.12-.81,4.24,4.24,0,0,1-1.12-2.55,4.8,4.8,0,0,1,.14-2.17,3.08,3.08,0,0,1,1-1.43,4.94,4.94,0,0,1,1.74-.9c.7-.21,1.45-.41,2.25-.58v-.06a1.55,1.55,0,0,0-.72-1.29,3,3,0,0,0-1.7-.16,3.31,3.31,0,0,0-1.14.38,7.84,7.84,0,0,0-1.23.76l-.24,0-.36-2.85a11.64,11.64,0,0,1,1.31-.54,8.42,8.42,0,0,1,1.86-.45,4.86,4.86,0,0,1,3.53.6,4.14,4.14,0,0,1,1.45,3l1,8-2.8.35Zm-.22-1.83-.31-2.46L57,36a3,3,0,0,0-.83.38,1.22,1.22,0,0,0-.52.58,1.7,1.7,0,0,0-.09.93A1.53,1.53,0,0,0,56,39a1.5,1.5,0,0,0,1,.19,1.52,1.52,0,0,0,.73-.32A2.43,2.43,0,0,0,58.43,38.13Z"/><path class="cls-4" d="M71.76,36a4.15,4.15,0,0,1-.07,1.55,3.2,3.2,0,0,1-.56,1.19,2.75,2.75,0,0,1-1.06.89,4.8,4.8,0,0,1-1.42.38l-5,.61L62.24,28.8,67,28.22a8.06,8.06,0,0,1,1.46-.1,2.32,2.32,0,0,1,1,.3,2,2,0,0,1,.82.8,3.43,3.43,0,0,1,.4,1.3,3.26,3.26,0,0,1-.17,1.58,2.77,2.77,0,0,1-.79,1.11v.12a2.38,2.38,0,0,1,1.37.82A3.36,3.36,0,0,1,71.76,36ZM67.9,31.72a1.17,1.17,0,0,0-.42-.91,1.41,1.41,0,0,0-1-.14l-1.17.14.29,2.36L66.83,33a1.24,1.24,0,0,0,.86-.42A1.08,1.08,0,0,0,67.9,31.72Zm1,4.51a1.44,1.44,0,0,0-.46-1,1.37,1.37,0,0,0-1-.19l-1.53.19.34,2.7,1.57-.2a1.22,1.22,0,0,0,.89-.46A1.39,1.39,0,0,0,68.87,36.23Z"/><path class="cls-4" d="M82.66,38.27l-3.25.4-2.72-4.42-.73.09L76.54,39l-2.82.35L72.26,27.56l2.82-.35L75.67,32a1.49,1.49,0,0,0,.86-.33A2.69,2.69,0,0,0,77,30.4l.16-.73c0-.26.1-.49.15-.7a3.22,3.22,0,0,1,.85-1.73,2.67,2.67,0,0,1,1.46-.62l.6-.06.41,0,.39,3.16-.55.06a1,1,0,0,0-.45.19,1.7,1.7,0,0,0-.32.38,1.66,1.66,0,0,0-.17.45c0,.14-.07.29-.1.43q-.12.58-.18.84a1.21,1.21,0,0,1-.25.51Z"/><path class="cls-4" d="M88.5,36.27l-.45.63a2.94,2.94,0,0,1-.55.59,3.38,3.38,0,0,1-.69.45,3,3,0,0,1-1,.25,2.39,2.39,0,0,1-2.12-.8,4.29,4.29,0,0,1-1.12-2.55,4.72,4.72,0,0,1,.14-2.18,3.06,3.06,0,0,1,1-1.42,4.94,4.94,0,0,1,1.74-.9,23,23,0,0,1,2.25-.58V29.7A1.55,1.55,0,0,0,87,28.41a3.06,3.06,0,0,0-1.71-.17,3.85,3.85,0,0,0-1.13.38,7.9,7.9,0,0,0-1.23.77l-.25,0-.35-2.85A11.64,11.64,0,0,1,83.63,26a8.42,8.42,0,0,1,1.86-.45,4.89,4.89,0,0,1,3.52.59,4.15,4.15,0,0,1,1.46,3l1,8-2.8.34Zm-.22-1.83L88,32c-.47.12-.85.22-1.14.31a3.12,3.12,0,0,0-.84.37,1.36,1.36,0,0,0-.51.58,1.75,1.75,0,0,0-.09.94,1.55,1.55,0,0,0,.48,1.1,1.45,1.45,0,0,0,1,.18,1.5,1.5,0,0,0,.73-.31A2.57,2.57,0,0,0,88.28,34.44Z"/><path class="cls-4" d="M32.44,59.06l-1.88.23-.76-6.13-1.91.23.76,6.14-1.88.23-1-7.87,5.67-.71Z"/><path class="cls-4" d="M39.18,54.23a5.13,5.13,0,0,1-.44,3.16,2.93,2.93,0,0,1-4.59.57A5.1,5.1,0,0,1,33,55a5.07,5.07,0,0,1,.44-3.17A2.94,2.94,0,0,1,38,51.26,5.14,5.14,0,0,1,39.18,54.23Zm-1.93.25A6.45,6.45,0,0,0,37,53.33a2.42,2.42,0,0,0-.34-.72,1,1,0,0,0-.42-.36,1,1,0,0,0-.5-.06,1,1,0,0,0-.44.16,1,1,0,0,0-.33.43,2.55,2.55,0,0,0-.16.79,7.26,7.26,0,0,0,.29,2.36,2.47,2.47,0,0,0,.32.69,1,1,0,0,0,.42.35,1,1,0,0,0,.52.06,1,1,0,0,0,.44-.18.87.87,0,0,0,.33-.42,2.43,2.43,0,0,0,.16-.76A6.72,6.72,0,0,0,37.25,54.48Z"/><path class="cls-4" d="M49.31,46.37l-1.64,8.68a4.61,4.61,0,0,1-.39,1.22,2.58,2.58,0,0,1-.53.71,1.88,1.88,0,0,1-.61.37,2.85,2.85,0,0,1-.67.16l-.86.09-.67,0-.27-2.22.12,0,.16,0h.54l.28,0a1.81,1.81,0,0,0,.66-.2.66.66,0,0,0,.38-.44l-3.92-7.47L44.05,47l2.32,4.68.85-5.07Z"/><path class="cls-4" d="M57.2,56,55,56.26l-1.81-2.94-.48.06.38,3.12-1.88.23-1-7.87,1.88-.23.39,3.16a1,1,0,0,0,.57-.23,1.84,1.84,0,0,0,.34-.81c0-.15.06-.31.1-.48l.1-.47a2.14,2.14,0,0,1,.57-1.15,1.73,1.73,0,0,1,1-.42l.4,0,.27,0,.26,2.1-.36,0a.59.59,0,0,0-.3.13,1,1,0,0,0-.21.25.94.94,0,0,0-.12.3l-.07.29-.11.56a1,1,0,0,1-.17.34Z"/><path class="cls-4" d="M63.28,51.14a5.65,5.65,0,0,1-.35,3.13,2.16,2.16,0,0,1-1.67,1.38,2.09,2.09,0,0,1-.8,0,3.56,3.56,0,0,1-.76-.32l.41,3.28-1.88.23L56.9,48l1.88-.23.1.82a4.63,4.63,0,0,1,.75-.86,1.75,1.75,0,0,1,1-.41,1.77,1.77,0,0,1,1.75.89A6.26,6.26,0,0,1,63.28,51.14Zm-1.91.28a4,4,0,0,0-.48-1.63.89.89,0,0,0-.91-.42,1.3,1.3,0,0,0-.49.17,1.75,1.75,0,0,0-.45.38l.49,4a1.3,1.3,0,0,0,.34.08,3.55,3.55,0,0,0,.44,0,1.12,1.12,0,0,0,.94-.71A3.59,3.59,0,0,0,61.37,51.42Z"/><path class="cls-4" d="M68,53.81l-.29.42a2.21,2.21,0,0,1-.37.39,2.86,2.86,0,0,1-.46.31,2.27,2.27,0,0,1-.66.16,1.61,1.61,0,0,1-1.42-.53,2.93,2.93,0,0,1-.75-1.71,3.18,3.18,0,0,1,.1-1.45,2.1,2.1,0,0,1,.66-.95,3.79,3.79,0,0,1,1.17-.6c.46-.14,1-.27,1.5-.38v0a1,1,0,0,0-.48-.86,2,2,0,0,0-1.13-.11,2.49,2.49,0,0,0-.76.25,5.06,5.06,0,0,0-.82.51l-.16,0-.24-1.9a9.23,9.23,0,0,1,.88-.36,6.49,6.49,0,0,1,1.23-.3,3.31,3.31,0,0,1,2.36.4,2.72,2.72,0,0,1,1,2L70,54.41l-1.87.24Zm-.15-1.22L67.66,51l-.76.2a2.53,2.53,0,0,0-.56.25.91.91,0,0,0-.34.39,1.24,1.24,0,0,0-.06.63,1,1,0,0,0,.32.73,1,1,0,0,0,.7.12,1,1,0,0,0,.49-.21A1.45,1.45,0,0,0,67.86,52.59Z"/><path class="cls-4" d="M77.11,53.53l-1.85.23L74.67,49,73,54.05l-1.57.19-1-7.87,1.85-.23.53,4.28,1.59-4.54,1.76-.22Z"/><path class="cls-4" d="M84.25,52.65l-1.88.23L82,49.51,80,49.75l.41,3.37-1.87.24-1-7.88,1.88-.23L79.79,48l1.94-.24L81.39,45l1.88-.23Z"/><path class="cls-4" d="M88.8,52.3a3.3,3.3,0,0,1-2.75-.74,4.66,4.66,0,0,1-1.29-2.93,5.18,5.18,0,0,1,.47-3.18A2.78,2.78,0,0,1,87.46,44a2.41,2.41,0,0,1,2.21.71,4.87,4.87,0,0,1,1,2.71l.11.88-4.12.51a2.89,2.89,0,0,0,.29.9,1.53,1.53,0,0,0,.47.53,1.31,1.31,0,0,0,.6.24,2.47,2.47,0,0,0,.72,0,2.26,2.26,0,0,0,.63-.17A2.65,2.65,0,0,0,90,50a4.32,4.32,0,0,0,.39-.34,3.65,3.65,0,0,0,.29-.32l.2,0,.25,2a4.62,4.62,0,0,0-.4.27,4,4,0,0,1-.49.27,3.32,3.32,0,0,1-.62.24A4.25,4.25,0,0,1,88.8,52.3Zm0-5.24a2.24,2.24,0,0,0-.42-1.15.9.9,0,0,0-.85-.31,1,1,0,0,0-.8.54,2.11,2.11,0,0,0-.2,1.2Z"/><path class="cls-4" d="M96.65,11l1.81,19.27-4.39.54L91.13,11.64Zm3.31,27-5.47.68-.59-4.78,5.47-.68Z"/><path class="cls-5" d="M3.08,15.82l4.81,49.8a2.82,2.82,0,0,0,3.05,2.56L117.26,57.92a2.82,2.82,0,0,0,2.51-3.1l-1.39-22.54-22-28.4L5.58,12.72A2.82,2.82,0,0,0,3.08,15.82Z"/><path class="cls-6" d="M93.67,22.4A2.92,2.92,0,0,1,92,18.79L97.62.89l23.5,31.45Z"/></g></g></svg>